<?xml version="1.0" encoding="UTF-8" standalone="no"?>
<svg width="72px" height="87px" viewBox="0 0 72 87" version="1.1" xmlns="http://www.w3.org/2000/svg" xmlns:xlink="http://www.w3.org/1999/xlink" xmlns:sketch="http://www.bohemiancoding.com/sketch/ns">
    <title>logo</title>
    <description>Created with Sketch (http://www.bohemiancoding.com/sketch)</description>
    <defs></defs>
    <g id="Page-1" stroke="none" stroke-width="1" fill="none" fill-rule="evenodd" sketch:type="MSPage">
        <path d="M71.748,14.769 C70.789,7.656 55.154,2 36.001,2 C36.001,2 36.001,2 36,2 C35.999,2 36,2 35.999,2 C16.228,2 0.205,8.027 0.205,15.461 L0.205,21.901 C0.205,29.787 16.227,36.179 35.999,36.179 L36,36.179 L36.001,36.179 C55.154,36.179 70.789,30.18 71.748,22.636 C71.779,22.392 71.796,22.148 71.796,21.901 L71.796,15.461 C71.794,15.229 71.779,14.999 71.748,14.769 L71.748,14.769 Z" id="Shape" fill="#D70206" sketch:type="MSShapeGroup"></path>
        <path d="M0.563126698,13.4130718 C0.563126698,20.7655201 16.55518,26.725679 36.2819293,26.725679 C56.0107541,26.725679 72.0017697,20.7655201 72.0017697,13.4130718 C72.0017697,6.06101023 56.0097164,0.100464595 36.2819293,0.100464595 C16.55518,0.100464595 0.563126698,6.06101023 0.563126698,13.4130718 Z" id="Path" fill="#2969B0" sketch:type="MSShapeGroup"></path>
        <path d="M36.3607948,18.4287943 L20.8782541,21.6306732 L23.6759035,15.1286817 L11.1954399,10.5364472 L28.6444293,9.62952532 L36.3597571,3.72467126 L44.1778176,9.64886267 L61.3673811,10.5337399 L48.8889929,15.1286817 L51.9460683,21.6322202 L36.3607948,18.4287943 Z" id="Shape" fill="#FFFFFF" sketch:type="MSShapeGroup"></path>
        <g id="logo" sketch:type="MSArtboardGroup" transform="translate(-253.000000, -133.000000)" fill="#D70206">
            <path d="M298.94,176.477 C297.403,176.659 295.824,176.797 294.21,176.895 C294.138,176.899 294.064,176.905 293.989,176.908 C293.227,176.952 292.458,176.986 291.68,177.01 C291.582,177.013 291.484,177.015 291.384,177.019 C290.596,177.04 289.803,177.053 289.001,177.053 C288.166,177.052 287.425,177.039 286.689,177.021 C286.55,177.017 286.411,177.013 286.273,177.009 C285.523,176.986 284.781,176.952 284.046,176.91 C283.944,176.905 283.844,176.897 283.744,176.891 C282.176,176.795 280.64,176.661 279.145,176.485 C267.265,175.092 257.905,171.246 254.547,166.365 C253.673,165.094 253.205,165.784 253.205,166.361 L253.205,178.407 C253.205,187.371 269.058,194.642 288.68,194.721 L289.319,194.718 C289.389,194.721 289.92,194.716 289.92,194.716 C309.266,194.486 324.795,187.277 324.795,178.406 L324.795,166.36 C324.794,165.784 324.326,165.094 323.454,166.365 C320.102,171.235 310.779,175.075 298.94,176.477 Z" id="Shape" sketch:type="MSShapeGroup"></path>
            <path d="M323.392,189.521 C319.512,195.8 307.967,200.558 293.799,201.445 C293.07,201.492 292.333,201.525 291.591,201.549 C291.459,201.554 291.326,201.558 291.194,201.562 C290.47,201.583 289.741,201.596 289.005,201.596 L289.001,201.596 L288.997,201.596 C288.262,201.596 287.533,201.58 286.807,201.562 C286.674,201.558 286.543,201.554 286.411,201.549 C285.669,201.525 284.933,201.491 284.204,201.445 C270.035,200.558 258.489,195.801 254.61,189.521 C253.695,188.043 253.208,188.835 253.208,189.568 L253.208,199.806 C253.208,206.035 259.538,212.407 269.145,216.283 L269.144,216.285 C269.179,216.299 269.216,216.311 269.251,216.325 C269.855,216.566 270.474,216.797 271.103,217.018 C271.238,217.066 271.371,217.114 271.506,217.159 C272.188,217.393 272.881,217.617 273.589,217.827 C273.622,217.836 273.657,217.845 273.691,217.855 C274.359,218.048 275.043,218.23 275.733,218.4 C275.89,218.439 276.047,218.478 276.205,218.515 C276.936,218.69 277.675,218.853 278.43,218.996 C278.464,219.004 278.498,219.01 278.531,219.016 C279.243,219.153 279.968,219.271 280.698,219.38 C280.883,219.407 281.068,219.435 281.254,219.461 C282.023,219.567 282.796,219.663 283.583,219.739 C283.614,219.742 283.645,219.744 283.677,219.747 C284.43,219.817 285.193,219.87 285.961,219.911 C286.166,219.924 286.37,219.931 286.576,219.941 C287.374,219.976 288.181,220 288.996,220 L289,220 L289.001,220 L289.002,220 L289.006,220 C289.821,220 290.628,219.978 291.431,219.942 C291.637,219.931 291.841,219.922 292.046,219.912 C292.814,219.871 293.576,219.818 294.329,219.748 C294.361,219.745 294.391,219.743 294.423,219.74 C295.21,219.664 295.984,219.568 296.753,219.462 C296.94,219.436 297.124,219.408 297.309,219.381 C298.039,219.272 298.763,219.153 299.476,219.017 C299.509,219.011 299.543,219.005 299.578,218.997 C300.331,218.853 301.07,218.69 301.802,218.516 C301.959,218.479 302.115,218.44 302.272,218.401 C302.965,218.231 303.648,218.05 304.318,217.854 C304.351,217.844 304.384,217.835 304.418,217.828 C305.127,217.618 305.819,217.395 306.503,217.16 C306.637,217.115 306.769,217.067 306.901,217.02 C307.531,216.797 308.154,216.567 308.759,216.324 C308.793,216.31 308.829,216.3 308.862,216.286 L308.861,216.284 C318.468,212.407 324.798,206.035 324.798,199.807 L324.798,189.569 C324.794,188.836 324.307,188.045 323.392,189.521 L323.392,189.521 Z" id="Shape" sketch:type="MSShapeGroup"></path>
        </g>
    </g>
</svg>